<svg xmlns="http://www.w3.org/2000/svg" viewBox="0 0 16 16"><defs><style>.cls-1{fill:#d8d8d8;}.cls-2{fill:#999;}</style></defs><title>Element 177</title><g id="Ebene_2" data-name="Ebene 2"><g id="Ebene_121" data-name="Ebene 121"><rect class="cls-1" width="16" height="16"/><path class="cls-2" d="M8,2.8a2,2,0,1,1-2,2H6a2,2,0,0,1,2-2ZM8,2a2.83,2.83,0,1,0,2.82,2.82h0A2.82,2.82,0,0,0,8,2Z"/><path class="cls-2" d="M8.39,8a3,3,0,0,1,3,3.08V13.2H4.57V11A3,3,0,0,1,7.62,8Zm0-.8H7.58A3.85,3.85,0,0,0,3.77,11v2.64A.34.34,0,0,0,4.1,14h7.8a.34.34,0,0,0,.34-.33v0h0V11A3.85,3.85,0,0,0,8.42,7.15Z"/></g></g></svg>