<svg id="Layer_1" data-name="Layer 1" xmlns="http://www.w3.org/2000/svg" xmlns:xlink="http://www.w3.org/1999/xlink"
     viewBox="0 0 35 35">
  <title>SmartAPILogo</title>
  <rect fill="#babec1" fill-opacity="0.5"
        width="34.998" height="35"/>
  <path fill="#fff" fill-opacity="0.15" d="M17.492,22.01l10.527,10.52,4.115-4.117L21.608,17.9l2.048-2.046-.013-4.113,1.467-1.466.013,3.391,1.421,1.421,5.146-5.148,1.378,1.377a9.22,9.22,0,0,0-2.7-6.324,4.4,4.4,0,0,0-6.429-.165L18.975,9.792l1.239,1.237-2.741,2.727L14.74,11.027l1.235-1.235L11.007,4.823a4.4,4.4,0,0,0-6.428.165,9.091,9.091,0,0,0-2.651,6.32L3.277,9.957l4.988,5.131,1.282-1.432V10.271l1.614,1.466.069,4.09,2.091,2.054L2.906,28.307l4.142,4.13L17.492,22.01"/>
</svg>
